<?xml version="1.0" encoding="UTF-8" standalone="no"?>
<!-- Created with Inkscape (http://www.inkscape.org/) -->

<svg
   width="210mm"
   height="210mm"
   viewBox="0 0 210 210"
   version="1.1"
   id="svg1"
   sodipodi:docname="manifold_noglow.svg"
   xml:space="preserve"
   inkscape:version="1.4.2 (2aeb623e1d, 2025-05-12)"
   xmlns:inkscape="http://www.inkscape.org/namespaces/inkscape"
   xmlns:sodipodi="http://sodipodi.sourceforge.net/DTD/sodipodi-0.dtd"
   xmlns:xlink="http://www.w3.org/1999/xlink"
   xmlns="http://www.w3.org/2000/svg"
   xmlns:svg="http://www.w3.org/2000/svg"><sodipodi:namedview
     id="namedview1"
     pagecolor="#505050"
     bordercolor="#eeeeee"
     borderopacity="1"
     inkscape:showpageshadow="0"
     inkscape:pageopacity="0"
     inkscape:pagecheckerboard="0"
     inkscape:deskcolor="#505050"
     inkscape:document-units="mm"
     inkscape:zoom="0.25291616"
     inkscape:cx="-535.75065"
     inkscape:cy="235.25582"
     inkscape:window-width="1920"
     inkscape:window-height="1011"
     inkscape:window-x="0"
     inkscape:window-y="0"
     inkscape:window-maximized="1"
     inkscape:current-layer="layer1" /><defs
     id="defs1"><linearGradient
       id="linearGradient6"
       inkscape:collect="always"><stop
         style="stop-color:#41fefe;stop-opacity:1;"
         offset="0"
         id="stop6" /><stop
         style="stop-color:#bffffb;stop-opacity:1;"
         offset="1"
         id="stop7" /></linearGradient><linearGradient
       id="linearGradient4"
       inkscape:collect="always"><stop
         style="stop-color:#ff00fe;stop-opacity:1;"
         offset="0"
         id="stop4" /><stop
         style="stop-color:#ef018f;stop-opacity:1;"
         offset="1"
         id="stop5" /></linearGradient><filter
       style="color-interpolation-filters:sRGB;"
       inkscape:label="Blur"
       id="filter1"
       x="-0.39425428"
       y="-0.33480003"
       width="1.7885086"
       height="1.6696001"><feGaussianBlur
         stdDeviation="20 20"
         result="blur"
         id="feGaussianBlur1" /></filter><filter
       style="color-interpolation-filters:sRGB;"
       inkscape:label="Blur"
       id="filter2"
       x="-0.43504885"
       y="-0.38383689"
       width="1.8700977"
       height="1.7676738"><feGaussianBlur
         stdDeviation="20 20"
         result="blur"
         id="feGaussianBlur2" /></filter><filter
       style="color-interpolation-filters:sRGB;"
       inkscape:label="Blur"
       id="filter3"
       x="-0.098563569"
       y="-0.083700004"
       width="1.1971271"
       height="1.1674"><feGaussianBlur
         stdDeviation="5 5"
         result="blur"
         id="feGaussianBlur3" /></filter><filter
       style="color-interpolation-filters:sRGB;"
       inkscape:label="Blur"
       id="filter4"
       x="-0.10876222"
       y="-0.095959221"
       width="1.2175244"
       height="1.1919184"><feGaussianBlur
         stdDeviation="5 5"
         result="blur"
         id="feGaussianBlur4" /></filter><linearGradient
       inkscape:collect="always"
       xlink:href="#linearGradient4"
       id="linearGradient5"
       x1="20.399546"
       y1="134.42778"
       x2="55.44492"
       y2="25.107134"
       gradientUnits="userSpaceOnUse" /><linearGradient
       inkscape:collect="always"
       xlink:href="#linearGradient6"
       id="linearGradient7"
       x1="126.6341"
       y1="193.15561"
       x2="184.63062"
       y2="72.850594"
       gradientUnits="userSpaceOnUse" /></defs><g
     inkscape:label="Layer 1"
     inkscape:groupmode="layer"
     id="layer1"><path
       id="path1"
       style="fill:url(#linearGradient7);fill-opacity:1;stroke-width:2.39371"
       d="m 149.32237,28.489067 a 91.518019,91.518019 0 0 1 27.22608,65.13173 91.518019,91.518019 0 0 1 -91.517692,91.517633 91.518019,91.518019 0 0 1 -33.718057,-6.43775 91.518019,91.518019 0 0 0 64.291579,26.38641 91.518019,91.518019 0 0 0 91.51814,-91.51767 91.518019,91.518019 0 0 0 -57.80005,-85.080353 z" /><path
       id="path1-6"
       style="fill:url(#linearGradient5);fill-opacity:1;stroke-width:2.75974"
       d="M 109.77846,3.320637 A 105.51282,105.51282 0 0 0 4.2660473,108.83358 105.51282,105.51282 0 0 0 68.143982,205.78428 105.51282,105.51282 0 0 1 29.050954,123.80036 105.51282,105.51282 0 0 1 134.56337,18.287422 105.51282,105.51282 0 0 1 176.19784,26.84911 105.51282,105.51282 0 0 0 109.77846,3.320637 Z" /></g></svg>
