<?xml version="1.0" encoding="UTF-8" standalone="no"?>
<!-- Created with Inkscape (http://www.inkscape.org/) -->

<svg
   width="210mm"
   height="210mm"
   viewBox="0 0 210 210"
   version="1.1"
   id="svg1"
   sodipodi:docname="manifold_glow.svg"
   xml:space="preserve"
   inkscape:version="1.4.2 (2aeb623e1d, 2025-05-12)"
   xmlns:inkscape="http://www.inkscape.org/namespaces/inkscape"
   xmlns:sodipodi="http://sodipodi.sourceforge.net/DTD/sodipodi-0.dtd"
   xmlns:xlink="http://www.w3.org/1999/xlink"
   xmlns="http://www.w3.org/2000/svg"
   xmlns:svg="http://www.w3.org/2000/svg"><sodipodi:namedview
     id="namedview1"
     pagecolor="#505050"
     bordercolor="#eeeeee"
     borderopacity="1"
     inkscape:showpageshadow="0"
     inkscape:pageopacity="0"
     inkscape:pagecheckerboard="0"
     inkscape:deskcolor="#505050"
     inkscape:document-units="mm"
     inkscape:zoom="0.50583232"
     inkscape:cx="508.07351"
     inkscape:cy="402.30723"
     inkscape:window-width="1920"
     inkscape:window-height="1011"
     inkscape:window-x="0"
     inkscape:window-y="0"
     inkscape:window-maximized="1"
     inkscape:current-layer="layer1" /><defs
     id="defs1"><linearGradient
       id="linearGradient6"
       inkscape:collect="always"><stop
         style="stop-color:#ff7a00;stop-opacity:1;"
         offset="0"
         id="stop6" /><stop
         style="stop-color:#ffc300;stop-opacity:1;"
         offset="1"
         id="stop7" /></linearGradient><linearGradient
       id="linearGradient4"
       inkscape:collect="always"><stop
         style="stop-color:#ff7a00;stop-opacity:1;"
         offset="0"
         id="stop4" /><stop
         style="stop-color:#ffc300;stop-opacity:1;"
         offset="1"
         id="stop5" /></linearGradient><filter
       style="color-interpolation-filters:sRGB;"
       inkscape:label="Blur"
       id="filter1"
       x="-0.39425428"
       y="-0.33480003"
       width="1.7885086"
       height="1.6696001"><feGaussianBlur
         stdDeviation="20 20"
         result="blur"
         id="feGaussianBlur1" /></filter><filter
       style="color-interpolation-filters:sRGB;"
       inkscape:label="Blur"
       id="filter2"
       x="-0.43504885"
       y="-0.38383689"
       width="1.8700977"
       height="1.7676738"><feGaussianBlur
         stdDeviation="20 20"
         result="blur"
         id="feGaussianBlur2" /></filter><filter
       style="color-interpolation-filters:sRGB;"
       inkscape:label="Blur"
       id="filter3"
       x="-0.098563569"
       y="-0.083700004"
       width="1.1971271"
       height="1.1674"><feGaussianBlur
         stdDeviation="5 5"
         result="blur"
         id="feGaussianBlur3" /></filter><filter
       style="color-interpolation-filters:sRGB;"
       inkscape:label="Blur"
       id="filter4"
       x="-0.10876222"
       y="-0.095959221"
       width="1.2175244"
       height="1.1919184"><feGaussianBlur
         stdDeviation="5 5"
         result="blur"
         id="feGaussianBlur4" /></filter><linearGradient
       inkscape:collect="always"
       xlink:href="#linearGradient4"
       id="linearGradient5"
       x1="20.399546"
       y1="134.42778"
       x2="55.44492"
       y2="25.107134"
       gradientUnits="userSpaceOnUse"
       gradientTransform="matrix(0.59047776,0,0,0.59047776,31.011995,33.533796)" /><linearGradient
       inkscape:collect="always"
       xlink:href="#linearGradient6"
       id="linearGradient7"
       x1="126.6341"
       y1="193.15561"
       x2="184.63062"
       y2="72.850594"
       gradientUnits="userSpaceOnUse"
       gradientTransform="matrix(0.67789796,0,0,0.67789796,36.052617,33.809938)" /><filter
       style="color-interpolation-filters:sRGB;"
       inkscape:label="Blur"
       id="filter11"
       x="-0.30772901"
       y="-0.27150455"
       width="1.615458"
       height="1.5430091"><feGaussianBlur
         stdDeviation="10 10"
         result="blur"
         id="feGaussianBlur11" /></filter><filter
       style="color-interpolation-filters:sRGB;"
       inkscape:label="Blur"
       id="filter12"
       x="-0.32016029"
       y="-0.27187966"
       width="1.6403206"
       height="1.5437593"><feGaussianBlur
         stdDeviation="10 10"
         result="blur"
         id="feGaussianBlur12" /></filter></defs><g
     inkscape:label="Layer 1"
     inkscape:groupmode="layer"
     id="layer1"><path
       id="path1-9"
       style="fill:#ff7a00;fill-opacity:1;stroke-width:1.19817;filter:url(#filter11)"
       d="M 101.82128,37.596522 A 45.809436,45.809436 0 0 1 115.44932,70.198282 45.809436,45.809436 0 0 1 69.640037,116.00751 45.809436,45.809436 0 0 1 52.762443,112.78509 45.809436,45.809436 0 0 0 84.943647,125.99283 45.809436,45.809436 0 0 0 130.75314,80.183579 45.809436,45.809436 0 0 0 101.82128,37.596522 Z"
       transform="matrix(1.3543035,0,0,1.3543035,-0.43078993,1.9111029)" /><path
       id="path1-6-1"
       style="fill:#ff7a00;fill-opacity:1;stroke-width:1.20325;filter:url(#filter12)"
       d="M 71.219407,24.580192 A 46.003704,46.003704 0 0 0 25.215879,70.583952 46.003704,46.003704 0 0 0 53.066733,112.85454 46.003704,46.003704 0 0 1 36.022133,77.109469 46.003704,46.003704 0 0 1 82.025647,31.105722 46.003704,46.003704 0 0 1 100.17833,34.838632 46.003704,46.003704 0 0 0 71.219407,24.580192 Z"
       transform="matrix(1.3543035,0,0,1.3543035,-0.43078993,1.9111029)" /><path
       id="path1"
       style="fill:url(#linearGradient7);fill-opacity:1;stroke-width:1.62269"
       d="m 137.27796,53.122618 a 62.03988,62.03988 0 0 1 18.4565,44.152678 62.03988,62.03988 0 0 1 -62.03967,62.039614 62.03988,62.03988 0 0 1 -22.857388,-4.36414 62.03988,62.03988 0 0 0 43.583118,17.88729 62.03988,62.03988 0 0 0 62.03996,-62.03963 62.03988,62.03988 0 0 0 -39.18252,-57.675812 z" /><path
       id="path1-6"
       style="fill:url(#linearGradient5);fill-opacity:1;stroke-width:1.62957"
       d="M 95.833736,35.494557 A 62.302978,62.302978 0 0 0 33.530999,97.79761 62.302978,62.302978 0 0 0 71.249503,155.04483 62.302978,62.302978 0 0 1 48.165942,106.63515 62.302978,62.302978 0 0 1 110.46866,44.332105 62.302978,62.302978 0 0 1 135.05291,49.387598 62.302978,62.302978 0 0 0 95.833736,35.494557 Z" /></g></svg>
